<svg width="29" height="28" viewBox="0 0 29 28" fill="none" xmlns="http://www.w3.org/2000/svg">
<path d="M6.19231 3.375C6.19231 4.96687 4.914 6.25 3.34615 6.25C1.7783 6.25 0.5 4.96687 0.5 3.375C0.5 1.78313 1.7783 0.5 3.34615 0.5C4.914 0.5 6.19231 1.78313 6.19231 3.375Z" fill="#C4C4C4" stroke="black"/>
<path d="M6.19231 13.5C6.19231 15.0919 4.914 16.375 3.34615 16.375C1.7783 16.375 0.5 15.0919 0.5 13.5C0.5 11.9081 1.7783 10.625 3.34615 10.625C4.914 10.625 6.19231 11.9081 6.19231 13.5Z" fill="#C4C4C4" stroke="black"/>
<path d="M6.19231 23.625C6.19231 25.2169 4.914 26.5 3.34615 26.5C1.7783 26.5 0.5 25.2169 0.5 23.625C0.5 22.0331 1.7783 20.75 3.34615 20.75C4.914 20.75 6.19231 22.0331 6.19231 23.625Z" fill="#C4C4C4" stroke="black"/>
<path d="M17.3462 3.375C17.3462 4.96687 16.0679 6.25 14.5 6.25C12.9322 6.25 11.6539 4.96687 11.6539 3.375C11.6539 1.78313 12.9322 0.5 14.5 0.5C16.0679 0.5 17.3462 1.78313 17.3462 3.375Z" fill="#C4C4C4" stroke="black"/>
<path d="M17.3462 13.5C17.3462 15.0919 16.0679 16.375 14.5 16.375C12.9322 16.375 11.6539 15.0919 11.6539 13.5C11.6539 11.9081 12.9322 10.625 14.5 10.625C16.0679 10.625 17.3462 11.9081 17.3462 13.5Z" fill="#C4C4C4" stroke="black"/>
<path d="M17.3462 23.625C17.3462 25.2169 16.0679 26.5 14.5 26.5C12.9322 26.5 11.6539 25.2169 11.6539 23.625C11.6539 22.0331 12.9322 20.75 14.5 20.75C16.0679 20.75 17.3462 22.0331 17.3462 23.625Z" fill="#C4C4C4" stroke="black"/>
<path d="M28.5 3.375C28.5 4.96687 27.2217 6.25 25.6538 6.25C24.086 6.25 22.8077 4.96687 22.8077 3.375C22.8077 1.78313 24.086 0.5 25.6538 0.5C27.2217 0.5 28.5 1.78313 28.5 3.375Z" fill="#C4C4C4" stroke="black"/>
<path d="M28.5 13.5C28.5 15.0919 27.2217 16.375 25.6538 16.375C24.086 16.375 22.8077 15.0919 22.8077 13.5C22.8077 11.9081 24.086 10.625 25.6538 10.625C27.2217 10.625 28.5 11.9081 28.5 13.5Z" fill="#C4C4C4" stroke="black"/>
<path d="M28.5 24.2473C28.5 25.8392 27.2217 27.1223 25.6538 27.1223C24.086 27.1223 22.8077 25.8392 22.8077 24.2473C22.8077 22.6555 24.086 21.3723 25.6538 21.3723C27.2217 21.3723 28.5 22.6555 28.5 24.2473Z" fill="#C4C4C4" stroke="black"/>
</svg>
