<svg width="21" height="31" viewBox="0 0 21 31" fill="none" xmlns="http://www.w3.org/2000/svg">
<mask id="path-1-inside-1_27_160" fill="white">
<path fill-rule="evenodd" clip-rule="evenodd" d="M21 10.2418C21 12.1349 20.4734 13.908 19.5553 15.4295L19.6015 15.4294L10.5331 31L1.41502 15.4585L1.46223 15.4584C0.533299 13.9306 0 12.1469 0 10.2418C0 4.5854 4.70101 0 10.5 0C16.299 0 21 4.5854 21 10.2418ZM10.6346 13.7455C12.7907 13.7455 14.5385 11.9958 14.5385 9.83749C14.5385 7.67914 12.7907 5.92945 10.6346 5.92945C8.47858 5.92945 6.73077 7.67914 6.73077 9.83749C6.73077 11.9958 8.47858 13.7455 10.6346 13.7455Z"/>
</mask>
<path fill-rule="evenodd" clip-rule="evenodd" d="M21 10.2418C21 12.1349 20.4734 13.908 19.5553 15.4295L19.6015 15.4294L10.5331 31L1.41502 15.4585L1.46223 15.4584C0.533299 13.9306 0 12.1469 0 10.2418C0 4.5854 4.70101 0 10.5 0C16.299 0 21 4.5854 21 10.2418ZM10.6346 13.7455C12.7907 13.7455 14.5385 11.9958 14.5385 9.83749C14.5385 7.67914 12.7907 5.92945 10.6346 5.92945C8.47858 5.92945 6.73077 7.67914 6.73077 9.83749C6.73077 11.9958 8.47858 13.7455 10.6346 13.7455Z" fill="#C4C4C4"/>
<path d="M19.5553 15.4295L18.6991 14.9128L17.7822 16.4323L19.5569 16.4295L19.5553 15.4295ZM19.6015 15.4294L20.4657 15.9326L21.3428 14.4266L19.5999 14.4294L19.6015 15.4294ZM10.5331 31L9.67063 31.506L10.5363 32.9816L11.3973 31.5033L10.5331 31ZM1.41502 15.4585L1.41342 14.4585L-0.32945 14.4613L0.552502 15.9646L1.41502 15.4585ZM1.46223 15.4584L1.46382 16.4584L3.23882 16.4556L2.31669 14.9389L1.46223 15.4584ZM20.4115 15.9461C21.4205 14.2741 22 12.3232 22 10.2418H20C20 11.9466 19.5264 13.5419 18.6991 14.9128L20.4115 15.9461ZM19.5999 14.4294L19.5537 14.4295L19.5569 16.4295L19.6031 16.4294L19.5999 14.4294ZM11.3973 31.5033L20.4657 15.9326L18.7374 14.9261L9.66901 30.4967L11.3973 31.5033ZM0.552502 15.9646L9.67063 31.506L11.3957 30.494L2.27753 14.9525L0.552502 15.9646ZM1.46063 14.4584L1.41342 14.4585L1.41661 16.4585L1.46382 16.4584L1.46063 14.4584ZM-1 10.2418C-1 12.3364 -0.41305 14.299 0.607762 15.9779L2.31669 14.9389C1.47965 13.5622 1 11.9574 1 10.2418H-1ZM10.5 -1C4.17234 -1 -1 4.00979 -1 10.2418H1C1 5.16101 5.22968 1 10.5 1V-1ZM22 10.2418C22 4.00979 16.8277 -1 10.5 -1V1C15.7703 1 20 5.16101 20 10.2418H22ZM13.5385 9.83749C13.5385 11.4446 12.2374 12.7455 10.6346 12.7455V14.7455C13.3439 14.7455 15.5385 12.5471 15.5385 9.83749H13.5385ZM10.6346 6.92945C12.2374 6.92945 13.5385 8.23041 13.5385 9.83749H15.5385C15.5385 7.12787 13.3439 4.92945 10.6346 4.92945V6.92945ZM7.73077 9.83749C7.73077 8.23041 9.03188 6.92945 10.6346 6.92945V4.92945C7.92528 4.92945 5.73077 7.12787 5.73077 9.83749H7.73077ZM10.6346 12.7455C9.03188 12.7455 7.73077 11.4446 7.73077 9.83749H5.73077C5.73077 12.5471 7.92528 14.7455 10.6346 14.7455V12.7455Z" fill="black" mask="url(#path-1-inside-1_27_160)"/>
</svg>
