<svg width="49" height="46" viewBox="0 0 49 46" fill="none" xmlns="http://www.w3.org/2000/svg">
<path fill-rule="evenodd" clip-rule="evenodd" d="M31.9474 13.6C31.9474 17.2451 28.8369 20.2 25 20.2C21.1631 20.2 18.0526 17.2451 18.0526 13.6C18.0526 9.95492 21.1631 7 25 7C28.8369 7 31.9474 9.95492 31.9474 13.6ZM14 30.9609V40H25H36V30.9609V30.8174H35.9986C35.9054 25.8914 31.0168 21.9217 25 21.9217C18.9832 21.9217 14.0946 25.8914 14.0014 30.8174H14V30.9609Z" fill="black"/>
<path d="M48 23C48 35.0917 37.5391 45 24.5 45C11.4609 45 1 35.0917 1 23C1 10.9083 11.4609 1 24.5 1C37.5391 1 48 10.9083 48 23Z" stroke="black" stroke-width="2"/>
</svg>
